<?xml version="1.0" encoding="UTF-8"?>
<svg id="_图层_1" data-name="图层 1" xmlns="http://www.w3.org/2000/svg" viewBox="0 0 105 120">
  <defs>
    <style>
      .cls-1 {
        fill: #fff;
      }

      .cls-2 {
        fill: #bdbdbd;
      }

      .cls-3 {
        isolation: isolate;
      }

      .cls-4 {
        fill: #9e9e9e;
      }
    </style>
  </defs>
  <path class="cls-4" d="M67.4,0H14.8C6.6,0,0,6.8,0,15v90c0,8.2,6.8,15,15,15h75c8.2,0,15-6.8,15-15V37.6L67.4,0Z"/>
  <path class="cls-2" d="M67.4,0l37.6,37.6h-22.6c-8.2,0-15-6.8-15-15V0Z"/>
  <g class="cls-3">
    <path class="cls-1" d="M26.83,103.14c0,.96-.3,1.75-.9,2.38-.68.72-1.88,1.09-3.59,1.09-.13,0-.32,0-.56,0h-.55c-1.92,0-3.07-.04-3.43-.12-.15-.03-.23-.11-.23-.24,0-.56.03-1.4.1-2.53.06-1.13.1-1.98.1-2.54,0-.6-.03-1.74-.09-3.41-.02-.43-.04-1.07-.09-1.92v-.11c-.01-.1.07-.16.24-.18.17-.02.77-.03,1.81-.03,1.66,0,2.63,0,2.91.02,1.28.05,2.23.25,2.84.62.81.5,1.21,1.33,1.21,2.51,0,.31-.09.63-.28.98-.14.25-.31.49-.53.73-.19.21-.29.31-.29.3,0,.04.07.09.2.17.36.21.65.54.86.99.19.41.28.84.28,1.3ZM23.47,98.75c0-.45-.22-.75-.67-.89-.25-.08-.66-.12-1.23-.12s-.84.04-.84.12c0,.1,0,.25-.03.45-.02.2-.03.35-.03.45,0,.52.04.81.13.88.06.05.39.07.99.07,1.12,0,1.68-.32,1.68-.96ZM23.7,103.11c0-.47-.2-.79-.59-.95-.25-.1-.66-.16-1.22-.16-.67,0-1.04.02-1.09.07-.06.05-.09.37-.09.96s.03.95.1,1.02c.07.07.44.1,1.12.1.56,0,.96-.04,1.19-.13.38-.15.57-.45.57-.91Z"/>
    <path class="cls-1" d="M30.66,102.93c0,.38,0,.95.02,1.7s.02,1.32.02,1.69c0,.11-.07.17-.2.2-.18.03-.58.05-1.2.05s-1.03-.02-1.2-.05c-.11-.02-.19-.05-.21-.1-.01-.02-.02-.1-.02-.23,0-.36,0-.9.02-1.62s.02-1.26.02-1.63c0-1.48-.06-2.66-.17-3.53-.01-.08-.02-.14-.02-.16,0-.1.07-.16.21-.16s.37.02.67.05c.3.03.52.05.68.05s.38-.01.68-.04c.3-.03.53-.04.68-.04.12,0,.19.05.19.16,0,.02,0,.07-.02.15-.11,1.02-.17,2.19-.17,3.53ZM30.86,97.13c0,.91-.51,1.36-1.53,1.36-.44,0-.8-.11-1.09-.34-.31-.25-.47-.59-.47-1.02s.16-.74.48-1c.3-.24.65-.36,1.07-.36s.76.12,1.05.37c.32.26.48.59.48.99Z"/>
    <path class="cls-1" d="M35.01,101.82c0,1.42,0,2.51.02,3.27,0,.12,0,.33.02.62.02.27.02.47.02.62,0,.11-.07.17-.2.2-.23.04-.66.06-1.27.06s-1.02-.02-1.2-.06c-.11-.03-.18-.1-.2-.21v-.34c0-.46,0-1.16.02-2.08.01-.92.02-1.62.02-2.07,0-2.19,0-3.18,0-2.99-.02-1.15-.08-2.14-.2-2.98-.01-.06-.02-.1-.02-.13,0-.11.07-.17.2-.17h2.79c.13,0,.19.05.18.16v.14c-.14,2.25-.21,4.24-.21,5.97Z"/>
    <path class="cls-1" d="M39.33,102.93c0,.38,0,.95.02,1.7s.02,1.32.02,1.69c0,.11-.07.17-.2.2-.18.03-.58.05-1.2.05s-1.03-.02-1.2-.05c-.11-.02-.19-.05-.21-.1-.01-.02-.02-.1-.02-.23,0-.36,0-.9.02-1.62s.02-1.26.02-1.63c0-1.48-.06-2.66-.17-3.53-.01-.08-.02-.14-.02-.16,0-.1.07-.16.21-.16s.37.02.67.05c.3.03.52.05.68.05s.38-.01.68-.04c.3-.03.53-.04.68-.04.12,0,.19.05.19.16,0,.02,0,.07-.02.15-.11,1.02-.17,2.19-.17,3.53ZM39.53,97.13c0,.91-.51,1.36-1.53,1.36-.44,0-.8-.11-1.09-.34-.31-.25-.47-.59-.47-1.02s.16-.74.48-1c.3-.24.65-.36,1.07-.36s.76.12,1.05.37c.32.26.48.59.48.99Z"/>
    <path class="cls-1" d="M51.38,106.28c0,.11-.02.18-.07.2-.02.02-.09.03-.22.04-.32.03-.77.05-1.34.05-.82,0-1.3-.02-1.44-.05-.14-.03-.21-.1-.21-.21,0-.41.02-1.03.06-1.86s.06-1.44.06-1.86c0-.2-.06-.32-.17-.35-.18-.04-.81-.06-1.89-.06s-1.72.02-1.91.06c-.11.03-.17.14-.17.35,0,.41.01,1.01.04,1.82.03.81.04,1.42.04,1.82,0,.16-.07.25-.21.27-.17.03-.66.05-1.47.05-.7,0-1.15-.02-1.34-.05-.15-.03-.23-.11-.23-.24,0-.56.03-1.41.08-2.55s.08-1.99.08-2.55c0-.6-.03-1.51-.08-2.72-.05-1.21-.08-2.12-.08-2.72,0-.11.05-.17.16-.17.16,0,.4,0,.73.02.33.02.57.02.73.02s.42,0,.75-.02.59-.02.75-.02c.09,0,.13.05.13.14,0,.39-.03.98-.09,1.75-.06.78-.09,1.36-.09,1.75,0,.18.05.29.15.32.14.04.8.06,2,.06,1.11,0,1.76-.02,1.94-.06.12-.03.19-.14.19-.32,0-.38-.02-.94-.05-1.7-.04-.76-.05-1.33-.05-1.71,0-.16.06-.24.2-.24.15,0,.38,0,.69.02.31.02.54.02.7.02s.38,0,.69-.02c.31-.02.54-.02.7-.02s.23.06.23.19c0,.6-.02,1.5-.07,2.71-.05,1.21-.07,2.11-.07,2.72,0,.57.03,1.42.08,2.55s.08,1.98.08,2.55Z"/>
    <path class="cls-1" d="M59.91,102.28c0,.53-.17.83-.51.9-.06.01-.6.07-1.62.17-.62.07-1.53.15-2.75.24.07.34.29.6.66.77.3.15.65.22,1.03.22.46,0,.93-.12,1.4-.38.2-.12.4-.25.59-.38.11.05.29.32.55.8s.39.78.39.91c0,.04-.04.1-.12.18-.64.68-1.62,1.02-2.96,1.02-1.24,0-2.24-.36-3-1.09-.78-.73-1.17-1.72-1.17-2.95s.35-2.18,1.05-2.95c.72-.79,1.67-1.19,2.86-1.19,1,0,1.85.36,2.55,1.09.7.73,1.05,1.6,1.05,2.6ZM57.18,101.8c0-.32-.12-.61-.34-.85-.23-.25-.5-.37-.82-.37s-.6.14-.81.41c-.2.25-.3.55-.3.9,0,.14.07.21.22.21.38,0,.98-.06,1.8-.18.17-.03.26-.07.26-.12Z"/>
    <path class="cls-1" d="M63.62,101.82c0,1.42,0,2.51.02,3.27,0,.12,0,.33.02.62.02.27.02.47.02.62,0,.11-.07.17-.2.2-.23.04-.66.06-1.27.06s-1.02-.02-1.2-.06c-.12-.03-.18-.1-.2-.21v-.34c0-.46,0-1.16.02-2.08,0-.92.02-1.62.02-2.07,0-2.19,0-3.18,0-2.99-.02-1.15-.08-2.14-.2-2.98-.01-.06-.02-.1-.02-.13,0-.11.07-.17.2-.17h2.79c.13,0,.19.05.18.16v.14c-.14,2.25-.21,4.24-.21,5.97Z"/>
    <path class="cls-1" d="M73.66,102.76c0,1.11-.33,2.04-.98,2.77-.68.76-1.57,1.14-2.66,1.14-.4,0-.83-.1-1.29-.3-.46-.2-.67-.3-.62-.3-.07,0-.1.08-.1.23,0,.27.01.67.04,1.2.03.53.04.93.04,1.2,0,.17-.09.25-.26.25h-1.59c-.36,0-.59,0-.7-.03-.16-.04-.23-.13-.23-.29l.02-6.02c0-1.21-.09-2.24-.27-3.07-.01-.05-.02-.1-.02-.13,0-.08.03-.13.09-.16.2-.08.59-.16,1.16-.25.56-.09.96-.13,1.21-.13.2,0,.32.13.35.4.03.27.06.4.11.4-.05,0,.17-.14.67-.43.5-.28.95-.43,1.36-.43,1.13,0,2.03.37,2.71,1.12.66.72.98,1.65.98,2.8ZM70.77,102.75c0-.42-.13-.78-.38-1.09-.28-.33-.62-.49-1.02-.49s-.75.16-1,.49c-.22.3-.33.66-.33,1.09s.11.81.34,1.1c.24.32.58.48,1.02.48.92,0,1.38-.53,1.38-1.58Z"/>
    <path class="cls-1" d="M81.84,102.28c0,.53-.17.83-.51.9-.06.01-.6.07-1.62.17-.62.07-1.53.15-2.75.24.07.34.29.6.66.77.3.15.65.22,1.03.22.46,0,.93-.12,1.4-.38.2-.12.4-.25.59-.38.11.05.29.32.55.8s.39.78.39.91c0,.04-.04.1-.12.18-.64.68-1.62,1.02-2.96,1.02-1.24,0-2.24-.36-3-1.09-.78-.73-1.17-1.72-1.17-2.95s.35-2.18,1.05-2.95c.72-.79,1.67-1.19,2.86-1.19,1,0,1.85.36,2.55,1.09.7.73,1.05,1.6,1.05,2.6ZM79.1,101.8c0-.32-.12-.61-.34-.85-.23-.25-.5-.37-.82-.37s-.6.14-.81.41c-.2.25-.3.55-.3.9,0,.14.07.21.22.21.38,0,.98-.06,1.8-.18.17-.03.26-.07.26-.12Z"/>
    <path class="cls-1" d="M87.88,101.65c0,.2-.11.3-.34.3-.1,0-.24,0-.43-.02-.19-.01-.33-.02-.43-.02-.43,0-.73.07-.88.2s-.23.41-.23.82c0,.22,0,.56.01,1.02s.01.8.01,1.02c0,.15,0,.38.03.68.02.3.03.52.03.67,0,.12-.09.2-.26.21-.25.02-.63.03-1.15.03s-.89-.02-1.19-.05c-.17-.02-.26-.11-.26-.26,0-.42,0-1.04,0-1.87,0-.83,0-1.45,0-1.87,0-1.22-.11-2.23-.34-3.02-.01-.05-.02-.09-.02-.12,0-.08.04-.13.12-.16.29-.03.71-.09,1.26-.17.82-.16,1.25-.24,1.27-.24.09,0,.15.16.18.49.03.33.07.49.14.49-.07,0,.14-.14.64-.41s.98-.41,1.45-.41c.29,0,.44.06.44.19,0,.15-.02.36-.05.64-.03.3-.05.51-.05.64,0,.15,0,.35,0,.6,0,.31.02.51.02.61Z"/>
  </g>
  <g class="cls-3">
    <path class="cls-1" d="M38.72,73.86c-2.12-1.66-4.48-3.49-7.08-5.51-1.95-1.48-3.95-2.51-6-3.07-.47-.12-.7-.41-.7-.87,0-.31.02-.78.07-1.39s.07-1.08.07-1.39c0-.27-.02-.68-.07-1.23s-.07-.97-.07-1.25c0-.41.23-.7.7-.87,1.42-.53,3.45-1.6,6.09-3.21.92-.56,2.02-1.35,3.3-2.37,1.95-1.53,3.02-2.36,3.19-2.48.12-.11.32-.22.59-.33.38.16.91.95,1.62,2.39.67,1.38,1.01,2.3,1.01,2.79,0,.16-.11.38-.33.66-2.2,2.7-5.12,4.55-8.74,5.53-.16.03-.31.13-.47.3.06.12.2.23.42.33,4.47,1.83,7.41,3.74,8.84,5.74.22.31.33.55.33.73,0,.45-.38,1.47-1.12,3.05-.77,1.64-1.31,2.46-1.64,2.46Z"/>
    <path class="cls-1" d="M50.25,78.43c-.08,0-.19-.03-.33-.09-1.27-.45-2.73-1.03-4.41-1.73-.11-.06-.16-.2-.16-.4,0-.16.02-.33.07-.52,2.17-7.47,3.76-13.15,4.76-17.04l2.93-11.37c.22-1.05.59-2.6,1.1-4.66.09-.34.26-.52.49-.52.48,0,1.4.27,2.74.8,1.44.58,2.16,1.05,2.16,1.41,0,.14-.71,2.76-2.13,7.85-1.56,5.58-2.4,8.56-2.51,8.95-.59,2.33-1.52,6.03-2.79,11.11-.27,1.3-.74,3.2-1.43,5.7-.11.34-.27.52-.49.52Z"/>
    <path class="cls-1" d="M80.13,64.41c0,.41-.24.7-.73.87-1.42.53-3.45,1.6-6.09,3.21-.91.56-2.01,1.34-3.3,2.34-1.94,1.55-3,2.38-3.19,2.51-.12.11-.32.22-.59.33-.33-.14-.82-.87-1.46-2.18s-.97-2.16-.97-2.55c0-.17.12-.4.35-.68,2.52-3.09,5.36-5.08,8.53-5.95.16-.03.32-.13.49-.3-.08-.12-.23-.23-.45-.33-4.28-1.77-7.2-3.77-8.77-6-.22-.28-.33-.52-.33-.7,0-.39.38-1.37,1.15-2.93s1.28-2.34,1.55-2.34c2.12,1.66,4.48,3.49,7.08,5.51,1.95,1.48,3.95,2.51,6,3.07.48.12.73.41.73.87,0,.31-.02.78-.07,1.39-.05.62-.07,1.08-.07,1.39,0,.27.02.68.07,1.23s.07.97.07,1.25Z"/>
  </g>
</svg>
